<svg xmlns="http://www.w3.org/2000/svg" width="584" height="147" fill="none"><path fill="#fff" d="M165.97 130.69h-27.66V24.29h44.03c11.95 0 21.1 3.1 27.45 9.31 6.35 6.21 9.53 14.96 9.53 26.25s-3.18 20.04-9.53 26.25c-6.35 6.21-15.5 9.31-27.45 9.31h-16.37v35.28zm0-57.57h9.17c10.16 0 15.24-4.42 15.24-13.26S185.3 46.6 175.14 46.6h-9.17v26.53-.01zm60.68-42.62c0-1.98.37-3.83 1.13-5.57.75-1.74 1.79-3.27 3.1-4.59 1.31-1.32 2.84-2.35 4.59-3.1 1.74-.75 3.6-1.13 5.57-1.13 1.97 0 3.83.38 5.57 1.13 1.74.75 3.27 1.79 4.59 3.1 1.32 1.32 2.35 2.85 3.1 4.59.75 1.74 1.13 3.6 1.13 5.57 0 1.97-.38 3.83-1.13 5.57-.75 1.74-1.79 3.27-3.1 4.59a14.588 14.588 0 0 1-4.59 3.1c-1.74.75-3.6 1.13-5.57 1.13-1.97 0-3.83-.37-5.57-1.13-1.74-.75-3.27-1.79-4.59-3.1a14.475 14.475 0 0 1-3.1-4.59c-.75-1.74-1.13-3.6-1.13-5.57zm27.24 27.8v72.39h-25.54V58.3h25.54zm14.24 0h25.54v9.17c3.48-4.23 7.01-7.08 10.58-8.54 3.57-1.46 7.76-2.19 12.56-2.19 5.08 0 9.43.82 13.05 2.47 3.62 1.65 6.7 3.98 9.24 6.99 2.07 2.45 3.48 5.18 4.23 8.18.75 3.01 1.13 6.45 1.13 10.3v46h-25.54V94.13c0-3.57-.26-6.47-.78-8.68s-1.44-3.97-2.75-5.29c-1.13-1.13-2.4-1.93-3.81-2.4a14.22 14.22 0 0 0-4.52-.71c-4.33 0-7.64 1.29-9.95 3.88-2.31 2.59-3.46 6.28-3.46 11.08v38.67h-25.54V58.3h.02zm143.23 0h25.68v72.39h-25.68v-8.04c-5.46 6.87-12.84 10.3-22.15 10.3-5.27 0-10.11-.97-14.53-2.89-4.42-1.93-8.28-4.63-11.57-8.11-3.29-3.48-5.86-7.57-7.69-12.28-1.83-4.7-2.75-9.83-2.75-15.38 0-5.17.89-10.09 2.68-14.75s4.28-8.72 7.48-12.21c3.2-3.48 7.01-6.23 11.43-8.26 4.42-2.02 9.31-3.03 14.68-3.03 9.03 0 16.51 3.15 22.44 9.45v-7.2l-.02.01zm-32.17 35.98c0 2.35.42 4.54 1.27 6.56.85 2.02 2 3.79 3.46 5.29 1.46 1.51 3.2 2.68 5.22 3.53 2.02.85 4.21 1.27 6.56 1.27 2.35 0 4.4-.42 6.42-1.27 2.02-.85 3.76-2.02 5.22-3.53 1.46-1.5 2.63-3.25 3.53-5.22.89-1.98 1.34-4.09 1.34-6.35s-.45-4.4-1.34-6.42c-.9-2.02-2.07-3.79-3.53-5.29s-3.2-2.68-5.22-3.53c-2.02-.85-4.16-1.27-6.42-1.27s-4.54.42-6.56 1.27c-2.02.85-3.76 2.02-5.22 3.53a17.465 17.465 0 0 0-3.46 5.15c-.85 1.93-1.27 4.02-1.27 6.28zm100.47-14.67v51.08h-25.54V79.61h-8.47V58.3h8.47V36.57h25.54V58.3h14.53v21.31h-14.53zm78.17-21.31h25.68v72.39h-25.68v-8.04c-5.46 6.87-12.84 10.3-22.15 10.3-5.27 0-10.11-.97-14.53-2.89-4.42-1.93-8.28-4.63-11.57-8.11-3.29-3.48-5.86-7.57-7.69-12.28-1.83-4.7-2.75-9.83-2.75-15.38 0-5.17.89-10.09 2.68-14.75s4.28-8.72 7.48-12.21c3.2-3.48 7.01-6.23 11.43-8.26 4.42-2.02 9.31-3.03 14.68-3.03 9.03 0 16.51 3.15 22.44 9.45v-7.2l-.02.01zm-32.17 35.98c0 2.35.42 4.54 1.27 6.56.85 2.02 2 3.79 3.46 5.29 1.46 1.51 3.2 2.68 5.22 3.53 2.02.85 4.21 1.27 6.56 1.27 2.35 0 4.4-.42 6.42-1.27 2.02-.85 3.76-2.02 5.22-3.53 1.46-1.5 2.63-3.25 3.53-5.22.89-1.98 1.34-4.09 1.34-6.35s-.45-4.4-1.34-6.42c-.9-2.02-2.07-3.79-3.53-5.29s-3.2-2.68-5.22-3.53c-2.02-.85-4.16-1.27-6.42-1.27s-4.54.42-6.56 1.27c-2.02.85-3.76 2.02-5.22 3.53a17.465 17.465 0 0 0-3.46 5.15c-.85 1.93-1.27 4.02-1.27 6.28z"/><path fill="#CE3F8F" d="m38.43 120.98 4.95 10.15h-30.1l4.92-10.15h-4.92l5.01-10.35h20.04l5.05 10.35h-4.95z"/><path fill="#6D3AC6" d="M18.52 131.13h19.62v5.29c0 5.41-4.39 9.81-9.81 9.81-5.41 0-9.81-4.39-9.81-9.81v-5.29z"/><path fill="#CE3F8F" d="m79.82 120.98 4.95 10.15h-30.1l4.92-10.15h-4.92l5.02-10.35h20.03l5.05 10.35h-4.95z"/><path fill="#6D3AC6" d="M59.91 131.13h19.62v5.29c0 5.41-4.39 9.81-9.81 9.81-5.41 0-9.81-4.39-9.81-9.81v-5.29z"/><path fill="#FD0" d="m79.1 99.49 7.57 11.14H11.38l7.52-11.17h-7.52l7.52-11.3h-5.01l5.01-11.27 20.05 2.92 40.15-.11 4.98 8.46h-4.99l.01.02 7.57 11.28h-7.58l.01.03z"/><path fill="#000" d="m17.28 90.59 4.13 3.89 7.03-6.63 6.82 6.78L42.23 88l6.98 6.63 6.82-6.78L63 94.48l7.03-6.68 1.3 1.3 4.47 4.23 4.16-3.87 1.62 2.41-5.73 5.72-.03-.03-5.89-5.84-6.98 6.97-6.97-6.97-6.97 6.97-6.83-6.82-6.97 6.62-6.77-6.72-6.98 6.97-5.83-5.67"/><path fill="#6D3AC6" d="M18.9 76.89c0-3.2-.59-7.43-2.09-9.83-2.01-3.21-5.62-5.42-12.64-5.47l-.1 4.01c2.51-.1 4.92.15 6.97 1.45 1.76 1.1 3.21 2.91 4.31 5.92-6.12-2.11-9.63-1.45-12.09.15-1.3.85-2.31 1.91-3.26 3.06l2.76 2.56c.15-.25.35-.45.5-.65 3.01-3.56 6.47-3.46 10.13-1.51-7.98 3.81-9.23 10.54-8.83 15.4.35.05 3.91 0 3.91 0-.35-4.72 2.51-11.2 9.53-13.1l.89-2 .01.01z"/><path fill="#1DB9D2" d="m81.58 79.75-42.56.06 3.76-11.65h-3.72l3.72-10.04h35.06l3.74 10.09h-3.74l3.74 11.54z"/><path fill="#FD0" d="m83.14 58.17-45.01.05 7.36-15.1h-5l7.41-14.55 35.24 7.73v21.87z"/><path fill="#CE3F8F" d="M83.14 58.17V36.3s12.95 2.92 15.74 10.13c.2.52.29 1.08.29 1.64.52 9.81-16.03 10.11-16.03 10.11v-.01z"/><path fill="#008599" d="M72.09 33.88C83.88 17.52 89.71 9.44 85.04 5.47c-3.06-2.61-7.56-.4-14.29 4.61-.25 5.37-1.16 12.74-2.86 22.87l4.2.92v.01z"/><path fill="#1DB9D2" d="M67.18.15C60.81-1.41 57.13 8.8 47.9 28.57l20.54 4.5c1.71-10.13 2.64-17.55 2.61-23.29C71.3 4.01 70.3.9 67.19.15h-.01z"/><path fill="#fff" d="M69.45 48.6a4.72 4.72 0 1 0 0-9.44 4.72 4.72 0 0 0 0 9.44z"/><path fill="#000" d="M69.45 46.16a2.28 2.28 0 1 0 0-4.56 2.28 2.28 0 0 0 0 4.56zm13.69 11.17v.84h-2.68l-5.79-2.51c-.45-.18-1.03-.83-.79-1.3.14-.29.72-.64 1.66-.27l7.6 3.24z"/></svg>