<svg width="104" height="69" viewBox="0 0 104 69" fill="none" xmlns="http://www.w3.org/2000/svg">
  <g clip-path="url(#clip0_4572_6981)">
    <path fill-rule="evenodd" clip-rule="evenodd" d="M51.1516 50.1534C51.6313 49.4444 51.6877 48.5086 51.2363 47.7714L23.8372 1.40764C23.4422 0.727076 22.7367 0.330078 21.9466 0.330078H2.70239C1.00935 0.330078 -0.0629078 2.17328 0.811831 3.64785L36.8172 65.4094C37.6073 66.7989 39.6107 66.884 40.5137 65.5512L51.1516 50.1534ZM17.8833 64.4453C18.7581 65.9199 17.6858 67.7914 15.9928 67.7914H15.9646H2.78705C1.5737 67.7914 0.586092 66.7989 0.586092 65.5796V43.2342C0.586092 40.9657 3.54891 40.1717 4.67761 42.1L17.8833 64.4453Z" fill="white"/>
    <path d="M102.733 65.0691C103.579 66.5437 102.535 68.3869 100.842 68.3869H81.711C80.9209 68.3869 80.2155 67.9616 79.8205 67.281L42.7146 3.64785C41.8681 2.17328 42.9121 0.330078 44.6052 0.330078H63.8212C64.6113 0.330078 65.3167 0.755433 65.7118 1.436L102.733 65.0691Z" fill="white"/>
  </g>
  <defs>
    <clipPath id="clip0_4572_6981">
      <rect width="104" height="69" fill="white"/>
    </clipPath>
  </defs>
</svg>
