<svg width="500" height="500" viewBox="0 0 500 500" fill="none" xmlns="http://www.w3.org/2000/svg">
<path d="M487.359 133.913L419.64 66.1904L366.203 12.6686C365.191 11.6562 364.124 10.6991 363.029 9.79609C355.307 3.48094 345.644 0.0210646 335.668 0H164.359C154.383 0.0165833 144.718 3.47698 136.998 9.79609C135.903 10.6991 134.836 11.6562 133.824 12.6686L80.4148 66.0808L12.6957 133.804C8.67395 137.819 5.48263 142.587 3.30426 147.836C1.1259 153.086 0.00313234 158.713 1.21229e-06 164.396V335.714C-0.00134547 341.398 1.11929 347.026 3.29792 352.276C5.47654 357.525 8.67031 362.293 12.6957 366.306L133.824 487.468C134.836 488.48 135.903 489.438 136.998 490.204C144.718 496.523 154.383 499.983 164.359 500H335.668C345.644 499.979 355.307 496.519 363.029 490.204C364.124 489.301 365.191 488.343 366.203 487.468L487.332 366.306C491.349 362.288 494.534 357.518 496.708 352.269C498.882 347.02 500 341.395 500 335.714V164.396C499.967 152.966 495.424 142.011 487.359 133.913V133.913ZM433.95 250.26V393.886C433.939 399.177 432.885 404.414 430.849 409.297C428.813 414.18 425.835 418.613 422.084 422.343C418.333 426.074 413.884 429.029 408.99 431.039C404.096 433.048 398.855 434.073 393.565 434.055H106.271C100.985 434.059 95.7492 433.02 90.8644 430.999C85.9796 428.977 81.5414 426.012 77.8033 422.274C74.0652 418.536 71.1006 414.098 69.0792 409.212C67.0578 404.327 66.0192 399.092 66.0228 393.805V106.496C66.0192 101.208 67.0575 95.9707 69.0785 91.0841C71.0996 86.1975 74.0639 81.7565 77.8016 78.016C81.5394 74.2755 85.9774 71.3092 90.8624 69.2847C95.7473 67.2603 100.983 66.2171 106.271 66.2171H393.565C404.246 66.2171 414.491 70.4611 422.044 78.0146C429.597 85.5682 433.84 95.8133 433.84 106.496V250.287L433.95 250.26Z" fill="black"/>
</svg>
